<!-- Generated by IcoMoon.io -->
<svg version="1.1" xmlns="http://www.w3.org/2000/svg" width="32" height="32" viewBox="0 0 32 32">
<title>prayer</title>
<path d="M0 0v32h32v-32zM18.222 5.88c1.524 0 2.76 1.236 2.76 2.76s-1.236 2.76-2.76 2.76c-1.524 0-2.76-1.236-2.76-2.76v0c0-0 0-0 0-0 0-1.524 1.236-2.76 2.76-2.76 0.009 0 0.019 0 0.028 0h-0.001zM23.418 13.249l-4 5.578c-0.233 0.321-0.606 0.527-1.028 0.527-0.463 0-0.868-0.248-1.089-0.619l-0.003-0.006-1.093-1.867-1.742 2.773 5.693 2.733c0.568 0.28 0.953 0.855 0.953 1.52 0 0.93-0.752 1.685-1.681 1.689h-9.374c-0.026 0.001-0.056 0.002-0.087 0.002-0.933 0-1.689-0.756-1.689-1.689s0.756-1.689 1.689-1.689c0.030 0 0.061 0.001 0.091 0.002l-0.004-0h1.947l-0.747-0.36c-0.341-0.167-0.61-0.437-0.773-0.768l-0.004-0.010c-0.154-0.207-0.247-0.468-0.247-0.75 0-0.17 0.034-0.332 0.095-0.48l-0.003 0.008 3.613-7.813c0.193-0.468 0.646-0.791 1.174-0.791 0.463 0 0.869 0.249 1.090 0.62l0.003 0.006 2.284 3.902 2.876-4c0.23-0.345 0.618-0.57 1.058-0.57 0.7 0 1.267 0.567 1.267 1.267 0 0.297-0.102 0.57-0.273 0.786l0.002-0.003z"></path>
</svg>
