<svg xmlns="http://www.w3.org/2000/svg" width="32" height="32" viewBox="0 0 32 32">
  <path fill="#FFF" d="M23.107,25.218 L10.329,25.218 C9.043,25.218 8,24.175 8,22.889 L8,8.329 C8,7.043 9.043,6 10.329,6 L22.436,6 L22.436,8.329 L21.36,8.329 L21.36,7.218 L10.604,7.218 C9.935,7.218 9.393,7.76 9.393,8.429 C9.393,9.098 9.935,9.64 10.604,9.64 L23.106,9.64 L23.107,25.218 Z M9.934,17.289 L9.934,23.885 L21.903,23.885 L21.903,10.676 L9.934,10.676 L9.934,17.289 Z M15.916,22.623 L13.774,20.232 L15.894,17.885 L18.036,20.276 L15.916,22.623 Z M13.174,19.565 L11.116,17.272 L13.227,14.925 L15.298,17.218 L13.174,19.565 Z M20.73,17.272 L18.65,19.592 L16.49,17.219 L18.561,14.899 L20.73,17.272 Z M17.987,14.214 L15.894,16.552 L13.836,14.259 L15.916,11.939 L17.987,14.214 Z M10.947,11.689 L14.783,11.689 L10.947,15.969 L10.947,11.689 Z M20.9699902,22.956 L17.1339902,22.956 L20.9699902,18.676 L20.9699902,22.956 Z M10.947,18.614 L14.783,22.894 L10.947,22.894 L10.947,18.614 Z M20.9041182,15.9222004 L16.9940061,11.7097996 L20.8294219,11.6428522 L20.9041182,15.9222004 Z"/>
</svg>
