<svg xmlns="http://www.w3.org/2000/svg" width="14" height="22" viewBox="0 0 14 22">
  <path fill="#FFF" d="M17.939,25.544 L16.899,26.54 C16.795,26.63 16.661,26.687 16.514,26.695 L16.512,26.695 L15.148,26.695 C14.999,26.687 14.865,26.629 14.761,26.539 L14.762,26.54 L13.722,25.544 C13.633,25.46 13.664,25.388 13.789,25.388 L17.891,25.388 C17.998,25.388 18.029,25.459 17.94,25.544 L17.939,25.544 Z M18.552,24.597 L13.103,24.597 C13.087,24.598 13.068,24.599 13.049,24.599 C12.688,24.599 12.396,24.306 12.396,23.946 C12.396,23.586 12.689,23.293 13.049,23.293 C13.068,23.293 13.087,23.294 13.105,23.295 L13.103,23.295 L18.552,23.295 C18.568,23.294 18.587,23.293 18.606,23.293 C18.967,23.293 19.259,23.586 19.259,23.946 C19.259,24.306 18.966,24.599 18.606,24.599 C18.587,24.599 18.568,24.598 18.55,24.597 L18.552,24.597 L18.552,24.597 Z M18.552,22.517 L13.103,22.517 C13.087,22.518 13.068,22.519 13.049,22.519 C12.688,22.519 12.396,22.226 12.396,21.866 C12.396,21.506 12.689,21.213 13.049,21.213 C13.068,21.213 13.087,21.214 13.105,21.215 L13.103,21.215 L18.552,21.215 C18.568,21.214 18.587,21.213 18.606,21.213 C18.967,21.213 19.259,21.506 19.259,21.866 C19.259,22.226 18.966,22.519 18.606,22.519 C18.587,22.519 18.568,22.518 18.55,22.517 L18.552,22.517 L18.552,22.517 Z M21.481,15.193 C20.53,16.722 19.259,18.34 19.259,20.104 L19.259,20.197 C19.257,20.318 19.158,20.415 19.037,20.415 C19.035,20.415 19.034,20.415 19.032,20.415 L17.143,20.415 C17.201,17.793 17.645,13.695 19.667,11.451 C19.729,11.375 19.767,11.277 19.767,11.17 C19.767,11.038 19.71,10.92 19.618,10.838 C19.538,10.772 19.434,10.732 19.321,10.732 C19.185,10.732 19.063,10.79 18.978,10.882 C16.756,13.331 16.311,17.664 16.231,20.411 L15.507,20.411 C15.445,17.66 14.969,13.331 12.76,10.882 C12.674,10.789 12.552,10.731 12.417,10.731 C12.304,10.731 12.2,10.771 12.12,10.838 L12.121,10.837 C12.029,10.919 11.972,11.037 11.972,11.169 C11.972,11.276 12.01,11.374 12.073,11.451 L12.072,11.45 C14.099,13.694 14.539,17.788 14.596,20.414 L12.649,20.414 C12.648,20.414 12.646,20.414 12.644,20.414 C12.523,20.414 12.424,20.317 12.422,20.196 L12.422,20.08 C12.422,18.431 11.213,16.836 10.271,15.329 C9.478,14.286 9,12.965 9,11.532 C9,11.531 9,11.53 9,11.529 C9,7.925 12.058,5 15.827,5 C19.596,5 22.654,7.924 22.654,11.529 C22.654,12.903 22.214,14.174 21.468,15.21 L21.481,15.191 L21.481,15.193 Z M15.588,10.748 L15.588,11.615 L16.041,11.615 L16.041,10.748 L15.588,10.748 Z M14.676,10.748 L14.676,11.615 L15.129,11.615 L15.129,10.748 L14.676,10.748 Z M16.494,10.748 L16.494,11.615 L16.947,11.615 L16.947,10.748 L16.494,10.748 Z M13.77,10.748 L13.77,11.615 L14.223,11.615 L14.223,10.748 L13.77,10.748 Z M17.401,10.748 L17.401,11.615 L17.854,11.615 L17.854,10.748 L17.401,10.748 Z" transform="translate(-9 -5)"/>
</svg>
