<svg xmlns="http://www.w3.org/2000/svg" width="32" height="32" viewBox="0 0 32 32">
  <path fill="#FFF" d="M23.106,27.691 L9.222,27.691 L9.222,25.251 L23.106,25.251 L23.106,27.691 Z M24.781,20.962 L24.483,21.851 C24.085,22.922 23.623,23.842 23.074,24.702 L23.11,24.642 L9.221,24.642 C8.706,23.84 8.242,22.919 7.877,21.949 L7.843,21.847 L7.545,20.958 C7.199,19.842 7,18.559 7,17.229 C7,17.001 7.006,16.774 7.017,16.549 L7.016,16.581 C7.163,13.728 9.892,9.07 12.349,7.137 L13.238,6.448 C13.771,6.057 14.269,5.715 14.696,5.435 C15.111,5.162 15.619,5 16.165,5 C16.711,5 17.219,5.162 17.644,5.441 L17.634,5.435 C18.052,5.711 18.523,6.044 19.056,6.422 L19.056,6.48 L19.092,6.449 L19.981,7.111 C22.399,9.053 25.163,13.724 25.31,16.582 C25.32,16.775 25.326,17 25.326,17.227 C25.326,18.556 25.127,19.839 24.757,21.047 L24.781,20.955 L24.781,20.962 Z M17.23,11.087 L15.097,11.087 L15.097,13.851 L12.23,13.851 L12.23,15.984 L15.097,15.984 L15.097,21.544 L17.23,21.544 L17.23,15.984 L20.097,15.984 L20.097,13.851 L17.23,13.851 L17.23,11.087 Z"/>
</svg>
