<svg xmlns="http://www.w3.org/2000/svg" width="32" height="32" viewBox="0 0 32 32">
  <path fill="#FFF" d="M28.683,20.191 L17.154,23.498 L16.927,22.814 C16.994,23.081 17.071,23.309 17.165,23.529 L17.153,23.499 L3.424,14.828 C3.157,14.331 3,13.74 3,13.112 C3,12.484 3.157,11.894 3.433,11.377 L3.423,11.397 L17.152,19.646 C16.918,20.222 16.782,20.891 16.782,21.591 C16.782,22.019 16.833,22.434 16.928,22.833 L16.921,22.797 L28.232,19.588 L28.65,16.664 L28.681,19.46 C28.823,19.46 28.925,19.593 28.957,19.784 C28.96,19.8 28.961,19.819 28.961,19.838 C28.961,20.009 28.843,20.153 28.684,20.192 L28.681,20.193 L28.683,20.191 Z M17.514,19.404 L3.785,11.111 L14.141,8 L29.154,16.271 L17.514,19.404 Z M10.669,11.102 L13.669,12.786 L10.34,13.87 L12.291,15.057 L15.38,14.013 L20.651,17.337 L22.762,16.755 L16.824,13.026 L19.464,11.928 L17.824,11.044 L15.304,11.964 L12.74,10.408 L10.669,11.101 L10.669,11.102 Z"/>
</svg>
