<svg xmlns="http://www.w3.org/2000/svg" width="16" height="20" viewBox="0 0 16 20">
  <path fill="#FFF" d="M17.944,6 C19.468,6 20.704,7.236 20.704,8.76 C20.704,10.284 19.468,11.52 17.944,11.52 C16.42,11.52 15.184,10.284 15.184,8.76 L15.184,8.76 C15.184,8.76 15.184,8.76 15.184,8.76 C15.184,7.236 16.42,6 17.944,6 C17.953,6 17.963,6 17.972,6 L17.971,6 L17.944,6 Z M23.14,13.369 L19.14,18.947 C18.907,19.268 18.534,19.474 18.112,19.474 C17.649,19.474 17.244,19.226 17.023,18.855 L17.02,18.849 L15.927,16.982 L14.185,19.755 L19.878,22.488 C20.446,22.768 20.831,23.343 20.831,24.008 C20.831,24.938 20.079,25.693 19.15,25.697 L9.776,25.697 C9.75,25.698 9.72,25.699 9.689,25.699 C8.756,25.699 8,24.943 8,24.01 C8,23.077 8.756,22.321 9.689,22.321 C9.719,22.321 9.75,22.322 9.78,22.323 L9.776,22.323 L11.723,22.323 L10.976,21.963 C10.635,21.796 10.366,21.526 10.203,21.195 L10.199,21.185 C10.045,20.978 9.952,20.717 9.952,20.435 C9.952,20.265 9.986,20.103 10.047,19.955 L10.044,19.963 L13.657,12.15 C13.85,11.682 14.303,11.359 14.831,11.359 C15.294,11.359 15.7,11.608 15.921,11.979 L15.924,11.985 L18.208,15.887 L21.084,11.887 C21.314,11.542 21.702,11.317 22.142,11.317 C22.842,11.317 23.409,11.884 23.409,12.584 C23.409,12.881 23.307,13.154 23.136,13.37 L23.138,13.367 L23.14,13.369 Z" transform="translate(-8 -6)"/>
</svg>
