<!-- Generated by IcoMoon.io -->
<svg version="1.1" xmlns="http://www.w3.org/2000/svg" width="32" height="32" viewBox="0 0 32 32">
<title>thought-pro</title>
<path d="M15.476 11.111h0.453v0.867h-0.453v-0.867z"></path>
<path d="M14.564 11.111h0.453v0.867h-0.453v-0.867z"></path>
<path d="M16.382 11.111h0.453v0.867h-0.453v-0.867z"></path>
<path d="M13.658 11.111h0.453v0.867h-0.453v-0.867z"></path>
<path d="M0 0v32h32v-32zM17.827 25.907l-1.040 0.996c-0.104 0.090-0.238 0.147-0.385 0.155l-0.002 0h-1.364c-0.149-0.008-0.283-0.066-0.387-0.156l0.001 0.001-1.040-0.996c-0.089-0.084-0.058-0.156 0.067-0.156h4.102c0.107 0 0.138 0.071 0.049 0.156zM18.44 24.96h-5.449c-0.016 0.001-0.035 0.002-0.054 0.002-0.361 0-0.653-0.293-0.653-0.653s0.293-0.653 0.653-0.653c0.019 0 0.038 0.001 0.056 0.002l-0.002-0h5.449c0.016-0.001 0.035-0.002 0.054-0.002 0.361 0 0.653 0.293 0.653 0.653s-0.293 0.653-0.653 0.653c-0.019 0-0.038-0.001-0.056-0.002l0.002 0zM18.44 22.88h-5.449c-0.016 0.001-0.035 0.002-0.054 0.002-0.361 0-0.653-0.293-0.653-0.653s0.293-0.653 0.653-0.653c0.019 0 0.038 0.001 0.056 0.002l-0.002-0h5.449c0.016-0.001 0.035-0.002 0.054-0.002 0.361 0 0.653 0.293 0.653 0.653s-0.293 0.653-0.653 0.653c-0.019 0-0.038-0.001-0.056-0.002l0.002 0zM21.369 15.556c-0.951 1.529-2.222 3.147-2.222 4.911v0 0.093c-0.002 0.121-0.101 0.218-0.222 0.218-0.002 0-0.003-0-0.005-0h-1.889c0.058-2.622 0.502-6.72 2.524-8.964 0.062-0.076 0.1-0.174 0.1-0.281 0-0.132-0.057-0.25-0.149-0.332l-0-0c-0.080-0.066-0.184-0.106-0.297-0.106-0.136 0-0.258 0.058-0.343 0.15l-0 0c-2.222 2.449-2.667 6.782-2.747 9.529h-0.724c-0.062-2.751-0.538-7.080-2.747-9.529-0.086-0.093-0.208-0.151-0.343-0.151-0.113 0-0.217 0.040-0.297 0.107l0.001-0.001c-0.092 0.082-0.149 0.2-0.149 0.332 0 0.107 0.038 0.205 0.101 0.282l-0.001-0.001c2.027 2.244 2.467 6.338 2.524 8.964h-1.947c-0.001 0-0.003 0-0.005 0-0.121 0-0.22-0.097-0.222-0.218v-0.116c0-1.649-1.209-3.244-2.151-4.751-0.793-1.043-1.271-2.364-1.271-3.797 0-0.001 0-0.002 0-0.003v0c0-3.604 3.058-6.529 6.827-6.529s6.827 2.924 6.827 6.529c-0 1.374-0.44 2.645-1.186 3.681l0.013-0.019z"></path>
<path d="M17.289 11.111h0.453v0.867h-0.453v-0.867z"></path>
</svg>
