<svg xmlns="http://www.w3.org/2000/svg" width="32" height="32" viewBox="0 0 32 32">
  <path fill="#FFF" d="M25.688,11.707 L17.932,20.018 L24.763,11.049 L25.688,11.707 Z M24.075,10.689 L17.284,20.022 L22.968,10.089 L24.075,10.689 Z M20.932,9 L22.016,9.578 L16.692,20.018 L20.932,9 Z M12.003,9 L16.221,20.013 L10.897,9.577 L12.003,9 Z M9.923,10.089 L15.63,20.018 L8.839,10.685 L9.923,10.089 Z M8.146,11.062 L14.959,20.018 L7.186,11.707 L8.146,11.062 Z M19.137,21.342 C18.333,22.289 16.444,22.329 16.444,22.329 C16.444,22.329 14.555,22.289 13.751,21.342 L5,12.289 L5.924,11.4 L14.297,20.147 C14.811,20.753 15.574,21.136 16.426,21.136 C17.278,21.136 18.04,20.754 18.552,20.151 L18.555,20.147 L26.973,11.383 L27.897,12.272 L19.137,21.342 Z"/>
</svg>
