<svg xmlns="http://www.w3.org/2000/svg" width="32" height="32" viewBox="0 0 32 32">
  <path fill="#FFF" d="M26.662,25.383 L6,25.383 L6,12.387 C6.003,9.417 8.412,7.01 11.382,7.01 C13.588,7.01 15.484,8.337 16.315,10.237 L16.329,10.272 C17.171,8.332 19.07,7 21.28,7 C24.253,7 26.662,9.41 26.662,12.382 C26.662,12.384 26.662,12.385 26.662,12.387 L26.662,25.383 Z M8.279,15.485 L8.279,16.423 L14.483,16.423 L14.483,15.485 L8.279,15.485 Z M18.173,20.761 L18.173,21.699 L24.377,21.699 L24.377,20.761 L18.173,20.761 Z M8.279,12.849 L8.279,13.787 L14.483,13.787 L14.483,12.849 L8.279,12.849 Z M8.279,20.761 L8.279,21.699 L14.483,21.699 L14.483,20.761 L8.279,20.761 Z M8.279,18.121 L8.279,19.059 L14.483,19.059 L14.483,18.121 L8.279,18.121 Z M18.173,12.849 L18.173,13.787 L24.377,13.787 L24.377,12.849 L18.173,12.849 Z M18.173,15.485 L18.173,16.423 L24.377,16.423 L24.377,15.485 L18.173,15.485 Z M18.173,18.121 L18.173,19.059 L24.377,19.059 L24.377,18.121 L18.173,18.121 Z"/>
</svg>
