<svg xmlns="http://www.w3.org/2000/svg" width="32" height="32" viewBox="0 0 32 32">
  <path fill="#FFF" d="M6.956,25.226 L6,6.937 L11.249,6.661 L10.805,10.154 L8.303,10.238 L8.325,10.931 L10.721,10.851 L10.53,12.455 L8.308,12.531 L8.33,13.224 L10.45,13.153 L10.25,14.806 L8.428,14.868 L8.45,15.561 L10.166,15.503 L9.966,17.156 L8.548,17.205 L8.584,17.894 L9.895,17.85 L9.695,19.508 L8.686,19.544 L8.704,20.22 L9.593,20.189 L9.393,21.842 L8.789,21.842 L8.811,22.535 L9.309,22.535 L9.073,24.664 L11.74,24.98 L6.956,25.226 Z M24.138,25.915 L9.734,24.222 L11.898,6 L15.454,6.444 L20.476,6.182 L20.52,7.049 L26.298,7.738 L24.138,25.915 Z M12.199,19.67 L12.2,19.67 L22.562,20.942 L22.646,20.254 L12.284,18.982 L12.199,19.67 Z M12.906,15.02 L12.907,15.02 L23.269,16.292 L23.353,15.604 L12.991,14.332 L12.906,15.02 Z M11.849,21.996 L11.85,21.996 L22.212,23.268 L22.296,22.58 L11.934,21.308 L11.849,21.996 Z M12.552,17.345 L12.553,17.345 L22.915,18.617 L22.999,17.929 L12.637,16.657 L12.552,17.345 Z M13.26,12.695 L13.261,12.695 L23.623,13.967 L23.707,13.279 L13.345,12.007 L13.26,12.695 Z M13.306,10.256 L13.307,10.256 L23.669,11.528 L23.753,10.84 L13.391,9.568 L13.306,10.256 Z"/>
</svg>
