<svg xmlns="http://www.w3.org/2000/svg" width="32" height="32" viewBox="0 0 32 32">
  <path fill="#FFF" d="M16.155,25.302 C16.154,25.302 16.152,25.302 16.151,25.302 C11.097,25.302 7,21.205 7,16.151 C7,11.097 11.097,7 16.151,7 C21.202,7 25.297,11.092 25.302,16.142 L25.302,16.143 C25.302,16.146 25.302,16.149 25.302,16.152 C25.302,21.204 21.207,25.301 16.156,25.303 L16.155,25.302 Z M21.715,15.702 L13.493,10.951 C13.42,10.909 13.333,10.884 13.24,10.884 C12.958,10.884 12.729,11.113 12.729,11.395 C12.729,11.395 12.729,11.395 12.729,11.396 L12.729,20.894 C12.729,20.894 12.729,20.894 12.729,20.895 C12.729,21.177 12.958,21.406 13.24,21.406 C13.333,21.406 13.421,21.381 13.496,21.337 L13.494,21.338 L21.716,16.591 C21.872,16.501 21.975,16.336 21.975,16.147 C21.975,15.958 21.872,15.792 21.719,15.704 L21.717,15.703 L21.715,15.702 Z"/>
</svg>
